<svg id="Groupe_64" data-name="Groupe 64" xmlns="http://www.w3.org/2000/svg" xmlns:xlink="http://www.w3.org/1999/xlink" width="53.885" height="42.3" viewBox="0 0 53.885 42.3">
  <defs>
    <clipPath id="clip-path">
      <rect id="Rectangle_34" data-name="Rectangle 34" width="53.885" height="42.3" fill="#365ded"/>
    </clipPath>
  </defs>
  <g id="Groupe_63" data-name="Groupe 63" clip-path="url(#clip-path)">
    <path id="Tracé_32" data-name="Tracé 32" d="M386.6,1.5a1.67,1.67,0,0,0-1.668,1.668V7.06a.556.556,0,1,1-1.112,0V3.168a1.668,1.668,0,0,0-3.336,0V7.06a.556.556,0,1,1-1.112,0V3.168a1.668,1.668,0,0,0-3.336,0V9.84a4.455,4.455,0,0,0,3.892,4.414v6.707h1.112V13.176h-.556a3.34,3.34,0,0,1-3.336-3.336V3.168a.556.556,0,1,1,1.112,0V7.06a1.668,1.668,0,0,0,3.336,0V3.168a.556.556,0,1,1,1.112,0V7.06a1.668,1.668,0,0,0,3.336,0V3.168a.556.556,0,0,1,1.112,0V9.84a3.34,3.34,0,0,1-3.336,3.336h-.556V25.965h1.112V14.254a4.454,4.454,0,0,0,3.892-4.414V3.168A1.67,1.67,0,0,0,386.6,1.5Z" transform="translate(-334.547 -1.335)" fill="#365ded"/>
    <path id="Tracé_33" data-name="Tracé 33" d="M383.205,24.8h-1.443V11.676h.722a3.174,3.174,0,0,0,3.171-3.171V1.833a.391.391,0,1,0-.781,0V5.726a1.834,1.834,0,1,1-3.667,0V1.833a.391.391,0,0,0-.781,0V5.726a1.834,1.834,0,0,1-3.667,0V1.833a.391.391,0,0,0-.781,0V8.506a3.174,3.174,0,0,0,3.171,3.171h.721v8.115h-1.443V13.063a4.621,4.621,0,0,1-3.892-4.557V1.834a1.834,1.834,0,0,1,3.667,0V5.726a.391.391,0,0,0,.781,0V1.834a1.834,1.834,0,0,1,3.667,0V5.726a.391.391,0,0,0,.781,0V1.834a1.834,1.834,0,0,1,3.667,0V8.506a4.619,4.619,0,0,1-3.892,4.557Zm-1.112-.331h.781V12.773l.145-.018a4.287,4.287,0,0,0,3.747-4.249V1.834a1.5,1.5,0,1,0-3.005,0V5.726a.722.722,0,0,1-1.443,0V1.834a1.5,1.5,0,0,0-3.005,0V5.726a.722.722,0,0,1-1.443,0V1.834a1.5,1.5,0,0,0-3.005,0V8.506a4.288,4.288,0,0,0,3.747,4.249l.145.018v6.687h.781V12.007h-.39a3.506,3.506,0,0,1-3.5-3.5V1.833a.722.722,0,0,1,1.443,0V5.726a1.5,1.5,0,0,0,3.005,0V1.833a.722.722,0,0,1,1.443,0V5.726a1.5,1.5,0,1,0,3.005,0V1.833a.721.721,0,1,1,1.443,0V8.506a3.505,3.505,0,0,1-3.5,3.5h-.391Z" transform="translate(-333.213)" fill="#365ded"/>
    <path id="Tracé_34" data-name="Tracé 34" d="M66.553,313.4H22.146a2.9,2.9,0,0,0-2.9,2.9v1.931a2.9,2.9,0,0,0,2.9,2.9H66.553a2.9,2.9,0,0,0,2.9-2.9V316.3a2.9,2.9,0,0,0-2.9-2.9m.965,4.827a.967.967,0,0,1-.965.965H22.146a.967.967,0,0,1-.965-.965V316.3a.967.967,0,0,1,.965-.965H66.553a.967.967,0,0,1,.965.965Z" transform="translate(-17.126 -278.824)" fill="#365ded"/>
    <path id="Tracé_35" data-name="Tracé 35" d="M58.05,53.8v6.071A19.321,19.321,0,0,0,45.5,77.931h1.931A17.4,17.4,0,0,1,64.807,60.554H70.6A17.4,17.4,0,0,1,87.976,77.931h1.931a19.321,19.321,0,0,0-12.55-18.063V53.8a2.9,2.9,0,0,0-2.9-2.9H60.946a2.9,2.9,0,0,0-2.9,2.9m6.758,4.827c-.326,0-.644.033-.965.049v-1.98h7.723v1.98c-.321-.016-.639-.049-.965-.049Zm-3.861-5.792H74.461a.967.967,0,0,1,.965.965v5.462a19.259,19.259,0,0,0-1.931-.394v-4.1H61.911v4.1a19.26,19.26,0,0,0-1.931.394V53.8a.967.967,0,0,1,.965-.965" transform="translate(-40.48 -45.285)" fill="#365ded"/>
    <path id="Tracé_36" data-name="Tracé 36" d="M80.5,279.3h1.931a13.612,13.612,0,0,1,.12-1.8l-1.914-.257A15.378,15.378,0,0,0,80.5,279.3Z" transform="translate(-71.619 -246.65)" fill="#365ded"/>
    <path id="Tracé_37" data-name="Tracé 37" d="M97.713,160.584l-.384-1.893a15.566,15.566,0,0,0-11.8,11.018l1.861.515a13.615,13.615,0,0,1,10.326-9.64Z" transform="translate(-76.09 -141.183)" fill="#365ded"/>
    <path id="Tracé_38" data-name="Tracé 38" d="M5.392,25.965H6.5V14.235l-.456-.083c-2.313-.425-3.437-1.835-3.437-4.311,0-2.915,1.59-7.228,5-7.228s5,4.313,5,7.228c0,2.477-1.124,3.887-3.437,4.311l-.455.083v6.726H9.84V15.148c2.549-.633,3.892-2.458,3.892-5.307,0-3.463-1.9-8.34-6.116-8.34S1.5,6.377,1.5,9.84c0,2.849,1.343,4.674,3.892,5.307Z" transform="translate(-1.335 -1.335)" fill="#365ded"/>
    <path id="Tracé_39" data-name="Tracé 39" d="M5.335,24.8H3.892V13.941C1.345,13.26,0,11.383,0,8.506,0,4.974,1.949,0,6.282,0s6.282,4.974,6.282,8.506c0,2.878-1.345,4.754-3.892,5.435v5.85H7.228V12.763l.591-.108c2.221-.408,3.3-1.765,3.3-4.149,0-2.848-1.538-7.063-4.839-7.063S1.443,5.657,1.443,8.506c0,2.384,1.08,3.741,3.3,4.149l.591.108Zm-1.112-.331H5V13.039l-.32-.059c-2.4-.441-3.572-1.9-3.572-4.474,0-2.982,1.643-7.394,5.17-7.394s5.17,4.412,5.17,7.394c0,2.569-1.168,4.033-3.572,4.474l-.32.059v6.422H8.34V13.684l.126-.031c2.464-.612,3.767-2.392,3.767-5.147,0-3.394-1.846-8.175-5.951-8.175S.331,5.111.331,8.506c0,2.755,1.3,4.535,3.766,5.147l.126.031Z" fill="#365ded"/>
  </g>
</svg>
