<svg id="Groupe_66" data-name="Groupe 66" xmlns="http://www.w3.org/2000/svg" xmlns:xlink="http://www.w3.org/1999/xlink" width="52.751" height="43.266" viewBox="0 0 52.751 43.266">
  <defs>
    <clipPath id="clip-path">
      <rect id="Rectangle_35" data-name="Rectangle 35" width="52.751" height="43.266" fill="#365ded"/>
    </clipPath>
  </defs>
  <g id="Groupe_65" data-name="Groupe 65" clip-path="url(#clip-path)">
    <path id="Tracé_40" data-name="Tracé 40" d="M216.791,189.308h.544c.007,0,.013-.007.018-.007s-.013.018-.013.031v.494a.157.157,0,0,0,.157.157h.544a.157.157,0,0,0,.157-.157v-.494c0-.009-.007-.015-.009-.022h.487a.157.157,0,0,0,.157-.157v-.494a.157.157,0,0,0-.157-.157H218.2v-.464a.157.157,0,0,0-.157-.157H217.5a.157.157,0,0,0-.157.157v.468l-.007,0h-.544a.157.157,0,0,0-.157.157v.494A.157.157,0,0,0,216.791,189.308Z" transform="translate(-195.237 -169.325)" fill="#365ded"/>
    <path id="Tracé_41" data-name="Tracé 41" d="M307.964,185.344a.916.916,0,1,0-.916-.916.916.916,0,0,0,.916.916" transform="translate(-276.722 -165.386)" fill="#365ded"/>
    <path id="Tracé_42" data-name="Tracé 42" d="M100.96,46.15a3.745,3.745,0,0,0,4.463-1.06l.713-.723c.986-1,1.975-2,2.994-2.972a3.828,3.828,0,0,1,2.777-1.191c2.625.076,5.194.131,7.764-.013,1.746-.1,2.815.736,3.978,2.115.275.326.538.664.8,1a16.164,16.164,0,0,0,1.9,2.157,3.373,3.373,0,0,0,2.244,1.115,2.59,2.59,0,0,0,.452-.041,4.545,4.545,0,0,0,3.846-4.911l-.127-1.849A53.265,53.265,0,0,0,132,32.87a20.646,20.646,0,0,0-2.611-7.636c-.881-1.333-2.336-3.064-4.9-2.782a11.066,11.066,0,0,0-3.519.973,8.042,8.042,0,0,1-4.137.634l-.044,0h0l-.9,0a3.509,3.509,0,0,0-.874-1.738c-.085-.111-.164-.206-.218-.289-.262-.41-.214-.646-.14-.806.483-1.058,3.466-1.93,5.43-2.212a.735.735,0,0,0,.625-.833.756.756,0,0,0-.833-.627c-.924.131-5.577.9-6.565,3.061a2.217,2.217,0,0,0,.245,2.218c.072.112.177.247.3.4a3.629,3.629,0,0,1,.546.837l-.754,0a6.59,6.59,0,0,1-4.213-.835,2.893,2.893,0,0,0-1-.409c-.1-.026-.2-.05-.3-.081a4.86,4.86,0,0,0-4.093.309.741.741,0,0,0-.23.137,5.8,5.8,0,0,0-1.322,1.2,10.559,10.559,0,0,0-1.848,3.278,43.8,43.8,0,0,0-2.174,14.6,4.063,4.063,0,0,0,2.5,3.881Zm6.711-22c.125.039.254.074.385.109a1.858,1.858,0,0,1,.514.179c1.63,1.167,3.389,1.134,5.092,1.113l3.1-.013a9.477,9.477,0,0,0,4.836-.776,9.264,9.264,0,0,1,2.138-.667l-3.825,1.982h-8.49L106.5,23.919a4.377,4.377,0,0,1,1.173.23Zm-5.638,4a9.144,9.144,0,0,1,1.593-2.826,4.362,4.362,0,0,1,.756-.721l6.591,2.887a.747.747,0,0,0,.3.063h8.825a.746.746,0,0,0,.339-.083l6.082-3.153a5.5,5.5,0,0,1,1.643,1.731,19.51,19.51,0,0,1,2.395,7.109,52.24,52.24,0,0,1,.734,6.718l.127,1.864a3.106,3.106,0,0,1-2.638,3.348c-.505.085-.865-.2-1.444-.719a15,15,0,0,1-1.72-1.967c-.275-.352-.549-.706-.839-1.046a6.124,6.124,0,0,0-4.832-2.649c-.116,0-.234,0-.356.011-2.513.144-5.048.085-7.638.013a5.07,5.07,0,0,0-3.835,1.595c-1.032.979-2.03,1.993-3.029,3.007l-.712.721c-1,1.014-1.79,1.226-2.8.758a2.607,2.607,0,0,1-1.641-2.55,42.436,42.436,0,0,1,2.1-14.11Z" transform="translate(-88.738 -15.818)" fill="#365ded"/>
    <path id="Tracé_43" data-name="Tracé 43" d="M366.3,133.164a.961.961,0,1,0-.961-.961.96.96,0,0,0,.961.961" transform="translate(-329.255 -118.281)" fill="#365ded"/>
    <path id="Tracé_44" data-name="Tracé 44" d="M366.3,162.986a.961.961,0,1,0,.961.961.96.96,0,0,0-.961-.961" transform="translate(-329.255 -146.888)" fill="#365ded"/>
    <path id="Tracé_45" data-name="Tracé 45" d="M383.137,148.073a.96.96,0,1,1-.961-.96.961.961,0,0,1,.961.96" transform="translate(-343.564 -132.583)" fill="#365ded"/>
    <path id="Tracé_46" data-name="Tracé 46" d="M350.439,149.034a.961.961,0,1,0-.961-.961.96.96,0,0,0,.961.961" transform="translate(-314.961 -132.583)" fill="#365ded"/>
    <path id="Tracé_47" data-name="Tracé 47" d="M199.53,173.34a3.1,3.1,0,1,0-3.1-3.1,3.1,3.1,0,0,0,3.1,3.1m0-4.716a1.62,1.62,0,1,1-1.62,1.62,1.624,1.624,0,0,1,1.62-1.62" transform="translate(-177.034 -150.638)" fill="#365ded"/>
    <path id="Tracé_48" data-name="Tracé 48" d="M130.93,137.82a3.1,3.1,0,1,0-3.1-3.1A3.1,3.1,0,0,0,130.93,137.82Zm0-4.714a1.62,1.62,0,1,1-1.62,1.62A1.624,1.624,0,0,1,130.93,133.105Z" transform="translate(-115.209 -118.627)" fill="#365ded"/>
    <path id="Tracé_49" data-name="Tracé 49" d="M151.14,153.966a.988.988,0,1,1-.988-.988.988.988,0,0,1,.988.988" transform="translate(-134.431 -137.869)" fill="#365ded"/>
    <path id="Tracé_50" data-name="Tracé 50" d="M285.944,165.736a3.33,3.33,0,1,0-3.33-3.331,3.333,3.333,0,0,0,3.33,3.331m0-5.184a1.854,1.854,0,1,1-1.855,1.853,1.854,1.854,0,0,1,1.855-1.853" transform="translate(-254.701 -143.364)" fill="#365ded"/>
    <path id="Tracé_51" data-name="Tracé 51" d="M283.688,130.513a1.058,1.058,0,1,0-1.058-1.058,1.058,1.058,0,0,0,1.058,1.058" transform="translate(-254.716 -115.715)" fill="#365ded"/>
    <path id="Tracé_52" data-name="Tracé 52" d="M231.278,130.513a1.058,1.058,0,1,0-1.058-1.058,1.058,1.058,0,0,0,1.058,1.058" transform="translate(-207.482 -115.715)" fill="#365ded"/>
    <path id="Tracé_53" data-name="Tracé 53" d="M52.015,0H.737A.738.738,0,0,0,0,.737V31.774a.737.737,0,0,0,.737.737H24.7v2.08L10.992,38.634a.735.735,0,0,0-.5.511l-.876,3.186a.738.738,0,0,0,.712.935.726.726,0,0,0,.206-.031L28.127,38.1,45.8,42.969a.74.74,0,0,0,.734-.206.73.73,0,0,0,.159-.743L45.6,38.848a.738.738,0,0,0-.5-.47l-14-3.938V32.512H52.014a.738.738,0,0,0,.737-.737V.739A.735.735,0,0,0,52.015,0ZM44.843,41.176,28.321,36.62a.73.73,0,0,0-.4,0L11.388,41.451l.417-1.515,16.3-4.806L44.334,39.7Zm-15.208-7.15L28.3,33.65a.734.734,0,0,0-.409,0l-1.714.5V32.512h3.457v1.514Zm21.643-2.99H1.476V1.477h49.8Z" fill="#365ded"/>
  </g>
</svg>
