<svg xmlns="http://www.w3.org/2000/svg" width="18.956" height="25.499" viewBox="0 0 18.956 25.499">
  <g id="location-pin" transform="translate(-5.627 -1.238)">
    <path id="Tracé_5" data-name="Tracé 5" d="M16.842,8.971a3.488,3.488,0,1,0,3.488,3.488A3.488,3.488,0,0,0,16.842,8.971Zm0,5.232a1.744,1.744,0,1,1,1.744-1.744A1.744,1.744,0,0,1,16.842,14.2Z" transform="translate(-1.738 -1.739)" fill="#100a31"/>
    <path id="Tracé_6" data-name="Tracé 6" d="M21.806,4.012A9.479,9.479,0,0,0,7.162,15.888L13.752,26a1.615,1.615,0,0,0,2.705,0l6.59-10.116A9.479,9.479,0,0,0,21.807,4.012Zm-.222,10.924L15.1,24.885,8.623,14.936a7.734,7.734,0,1,1,12.961,0Z" fill="#100a31"/>
  </g>
</svg>
