<svg xmlns="http://www.w3.org/2000/svg" width="34.712" height="44.489" viewBox="0 0 34.712 44.489">
  <g id="musical-notes-outline" transform="translate(-5.625 -2.244)">
    <path id="Tracé_54" data-name="Tracé 54" d="M13.5,17.942v-.609a3.185,3.185,0,0,1,2.458-3.1L33.67,9.494a2.029,2.029,0,0,1,2.554,1.955v2.232" transform="translate(2.989 2.678)" fill="none" stroke="#365ded" stroke-linecap="round" stroke-linejoin="round" stroke-width="2.25"/>
    <path id="Tracé_55" data-name="Tracé 55" d="M39.212,28.525v8.116a3.2,3.2,0,0,1-2.232,3.043l-2.232.812a3.994,3.994,0,0,1-5.275-3.855h0a3.385,3.385,0,0,1,2.333-3.246l5.174-1.841a3.184,3.184,0,0,0,2.232-3.028V4.388a1.014,1.014,0,0,0-1.278-.975L17.706,8.852a1.672,1.672,0,0,0-1.218,1.623V33.4a3.2,3.2,0,0,1-2.232,3.043L8.982,38.271A3.3,3.3,0,0,0,6.75,41.518h0a4.014,4.014,0,0,0,5.275,3.855l2.232-.812a3.2,3.2,0,0,0,2.232-3.043V33.4" transform="translate(0 0)" fill="none" stroke="#365ded" stroke-linecap="round" stroke-linejoin="round" stroke-width="2.25"/>
  </g>
</svg>
