<svg id="Groupe_60" data-name="Groupe 60" xmlns="http://www.w3.org/2000/svg" xmlns:xlink="http://www.w3.org/1999/xlink" width="109.809" height="80.361" viewBox="0 0 109.809 80.361">
  <defs>
    <clipPath id="clip-path">
      <rect id="Rectangle_30" data-name="Rectangle 30" width="109.809" height="80.361" fill="#fff"/>
    </clipPath>
  </defs>
  <g id="Groupe_59" data-name="Groupe 59" clip-path="url(#clip-path)">
    <path id="Tracé_12" data-name="Tracé 12" d="M104.768,80.361H5.042A5.047,5.047,0,0,1,0,75.319V5.042A5.047,5.047,0,0,1,5.042,0h99.726a5.047,5.047,0,0,1,5.042,5.042V75.319a5.047,5.047,0,0,1-5.042,5.042M5.042,2.2A2.845,2.845,0,0,0,2.2,5.042V75.319a2.846,2.846,0,0,0,2.842,2.842h99.726a2.846,2.846,0,0,0,2.842-2.842V5.042A2.846,2.846,0,0,0,104.768,2.2Z" fill="#fff"/>
    <path id="Tracé_13" data-name="Tracé 13" d="M108.71,96.522H1.1a1.1,1.1,0,1,1,0-2.2H108.71a1.1,1.1,0,1,1,0,2.2" transform="translate(0 -82.798)" fill="#fff"/>
    <path id="Tracé_14" data-name="Tracé 14" d="M52.112,44.071a1.565,1.565,0,1,1-1.565-1.565,1.565,1.565,0,0,1,1.565,1.565" transform="translate(-42.996 -37.312)" fill="#fff"/>
    <path id="Tracé_15" data-name="Tracé 15" d="M95.9,44.071a1.565,1.565,0,1,1-1.565-1.565A1.565,1.565,0,0,1,95.9,44.071" transform="translate(-81.435 -37.312)" fill="#fff"/>
    <path id="Tracé_16" data-name="Tracé 16" d="M139.69,44.071a1.565,1.565,0,1,1-1.565-1.565,1.565,1.565,0,0,1,1.565,1.565" transform="translate(-119.874 -37.312)" fill="#fff"/>
    <path id="Tracé_17" data-name="Tracé 17" d="M277.043,184.918H261.078a3.42,3.42,0,0,0-3.421,3.421v3.421H253.1V175.794a1.14,1.14,0,1,0-2.28,0v5.7h-4.562v-3.421a3.42,3.42,0,0,0-3.421-3.421H226.867a3.421,3.421,0,0,0-3.421,3.421V187.2a3.422,3.422,0,0,0,3.421,3.421h15.965a3.421,3.421,0,0,0,3.421-3.421v-3.421h4.561v18.246h-4.562V198.6a3.42,3.42,0,0,0-3.421-3.421H226.867a3.421,3.421,0,0,0-3.421,3.421v9.123a3.421,3.421,0,0,0,3.421,3.421h15.965a3.421,3.421,0,0,0,3.421-3.421V204.3h4.561V223.69a1.14,1.14,0,1,0,2.28,0v-9.123h4.561v3.421h0a3.421,3.421,0,0,0,3.421,3.421h15.965a3.421,3.421,0,0,0,3.421-3.421v-9.123a3.42,3.42,0,0,0-3.421-3.421H261.078a3.42,3.42,0,0,0-3.421,3.421v3.421H253.1V194.04h4.561v3.421h0a3.421,3.421,0,0,0,3.421,3.421h15.965a3.421,3.421,0,0,0,3.421-3.421v-9.123a3.42,3.42,0,0,0-3.421-3.421Zm-33.07,2.281a1.14,1.14,0,0,1-1.141,1.14H226.867a1.141,1.141,0,0,1-1.141-1.14v-9.123a1.14,1.14,0,0,1,1.141-1.14h15.965a1.14,1.14,0,0,1,1.141,1.14Zm0,20.527a1.14,1.14,0,0,1-1.141,1.14H226.867a1.141,1.141,0,0,1-1.141-1.14V198.6a1.14,1.14,0,0,1,1.141-1.14h15.965a1.14,1.14,0,0,1,1.141,1.14Zm15.966,1.14h0a1.14,1.14,0,0,1,1.141-1.14h15.965a1.14,1.14,0,0,1,1.141,1.14v9.123a1.141,1.141,0,0,1-1.141,1.14H261.079a1.141,1.141,0,0,1-1.141-1.14Zm18.246-11.4a1.14,1.14,0,0,1-1.141,1.14H261.079a1.141,1.141,0,0,1-1.141-1.14v-9.123a1.14,1.14,0,0,1,1.141-1.14h15.965a1.14,1.14,0,0,1,1.141,1.14Z" transform="translate(-196.144 -153.314)" fill="#fff"/>
    <path id="Tracé_18" data-name="Tracé 18" d="M314.285,211.985h-5.7a1.14,1.14,0,0,0,0,2.281h5.7a1.14,1.14,0,0,0,0-2.281" transform="translate(-269.878 -186.084)" fill="#fff"/>
    <path id="Tracé_19" data-name="Tracé 19" d="M261.911,214.268h1.141a1.14,1.14,0,0,0,0-2.281h-1.141a1.14,1.14,0,0,0,0,2.281" transform="translate(-228.909 -186.086)" fill="#fff"/>
    <path id="Tracé_20" data-name="Tracé 20" d="M269.9,249.325h-7.983a1.14,1.14,0,0,0,0,2.28H269.9a1.14,1.14,0,1,0,0-2.28" transform="translate(-228.912 -218.861)" fill="#fff"/>
    <path id="Tracé_21" data-name="Tracé 21" d="M314.285,379.985h-5.7a1.14,1.14,0,0,0,0,2.281h5.7a1.14,1.14,0,0,0,0-2.281" transform="translate(-269.878 -333.557)" fill="#fff"/>
    <path id="Tracé_22" data-name="Tracé 22" d="M261.911,382.268h1.141a1.14,1.14,0,0,0,0-2.281h-1.141a1.14,1.14,0,0,0,0,2.281" transform="translate(-228.909 -333.559)" fill="#fff"/>
    <path id="Tracé_23" data-name="Tracé 23" d="M269.9,417.325h-7.983a1.14,1.14,0,0,0,0,2.28H269.9a1.14,1.14,0,1,0,0-2.28" transform="translate(-228.912 -366.335)" fill="#fff"/>
    <path id="Tracé_24" data-name="Tracé 24" d="M594.285,295.985h-5.7a1.14,1.14,0,0,0,0,2.281h5.7a1.14,1.14,0,0,0,0-2.281" transform="translate(-515.667 -259.82)" fill="#fff"/>
    <path id="Tracé_25" data-name="Tracé 25" d="M541.911,298.268h1.141a1.14,1.14,0,0,0,0-2.281h-1.141a1.14,1.14,0,0,0,0,2.281" transform="translate(-474.697 -259.822)" fill="#fff"/>
    <path id="Tracé_26" data-name="Tracé 26" d="M549.9,333.325h-7.983a1.14,1.14,0,1,0,0,2.28H549.9a1.14,1.14,0,1,0,0-2.28" transform="translate(-474.701 -292.598)" fill="#fff"/>
    <path id="Tracé_27" data-name="Tracé 27" d="M588.581,466.268h5.7a1.14,1.14,0,0,0,0-2.281h-5.7a1.14,1.14,0,0,0,0,2.281" transform="translate(-515.665 -407.295)" fill="#fff"/>
    <path id="Tracé_28" data-name="Tracé 28" d="M541.911,466.268h1.141a1.14,1.14,0,0,0,0-2.281h-1.141a1.14,1.14,0,0,0,0,2.281" transform="translate(-474.697 -407.295)" fill="#fff"/>
    <path id="Tracé_29" data-name="Tracé 29" d="M541.911,503.6h7.983a1.14,1.14,0,1,0,0-2.28h-7.983a1.14,1.14,0,0,0,0,2.28" transform="translate(-474.697 -440.068)" fill="#fff"/>
  </g>
</svg>
