<svg id="Groupe_62" data-name="Groupe 62" xmlns="http://www.w3.org/2000/svg" xmlns:xlink="http://www.w3.org/1999/xlink" width="38.758" height="59.102" viewBox="0 0 38.758 59.102">
  <defs>
    <clipPath id="clip-path">
      <rect id="Rectangle_33" data-name="Rectangle 33" width="38.758" height="59.102" fill="#365ded"/>
    </clipPath>
  </defs>
  <g id="Groupe_61" data-name="Groupe 61" clip-path="url(#clip-path)">
    <path id="Tracé_31" data-name="Tracé 31" d="M38.325,51.732a1.07,1.07,0,0,0-1.5.209S35.895,53,33,53a5.992,5.992,0,0,1-.767-.051c1.237-1,3.414-3.2,3.284-6.264-.058-1.208-.246-2.524-1.244-3.19-1.186-.781-2.727-.232-5.244.724-.441-.564-1.548-2-3.038-4.065.253-2.517.724-9.837-1.8-14.162a52.931,52.931,0,0,0-3.949-10.278C17.089,9.072,9.177.5,7.427.1A1.706,1.706,0,0,0,5.647.509C5,1.232,4.324,2.042,9.5,15.6a83.046,83.046,0,0,0,3.985,8.679,7.315,7.315,0,0,0-2.669,5.975l-.2.232h0a7.068,7.068,0,0,1-1.83,1.758,4.681,4.681,0,0,0-.383-2.763C6.964,26.424,4.345,27.147,3.347,27.4,1.9,27.806.353,29,1.141,32.391A5.2,5.2,0,0,0,2.45,35.176a5.185,5.185,0,0,0-.666,2.893C1.9,42.148,5.3,48.137,5.444,48.376a1.071,1.071,0,0,0,.969.542c1.519,0,3.11-.05,4.5-.058h3.681c.419.2,1.88,1.078,3.327,1.989l-.123.1a1.055,1.055,0,0,0-.376.724A4.956,4.956,0,0,0,14.2,50.5a11.371,11.371,0,0,0-6.473,1.859,1.1,1.1,0,0,0-.4.528,7.776,7.776,0,0,0-7.233,3.92,1.085,1.085,0,0,0,1.938.969,5.657,5.657,0,0,1,6.148-2.654,32.8,32.8,0,0,1,5.692,1.808C16.663,58,19.534,59.1,22.724,59.1H23.7a18.165,18.165,0,0,0,9.706-3.942c3.681-.108,4.991-1.707,5.128-1.895h0a1.092,1.092,0,0,0-.21-1.533Zm-5.266-6.423s.224.224.282,1.446c.13,2.893-3.031,4.889-3.059,4.911h0a1,1,0,0,0-.3.275,6.775,6.775,0,0,0-3.493-.824,5.51,5.51,0,0,0-3.168.984,5.182,5.182,0,0,1-3.009.9,3.572,3.572,0,0,1-1.367-.188,1.115,1.115,0,0,0,.282-.166c.051-.043,5.338-4.484,9.555-6.04l.861-.318c1.425-.535,3.052-1.142,3.414-.983ZM10.71,42.185,17.284,38.1a17,17,0,0,0,7.32,3.826c1,1.374,1.8,2.437,2.315,3.1h0A32.645,32.645,0,0,0,22.3,47.652l-5.931-4.774a1.051,1.051,0,0,0-.6-.239s-3.11-.232-5.056-.456ZM9.343,39.067v-.34h0a6.407,6.407,0,0,1,1.642-.665,3.616,3.616,0,0,0,1.136-.47,6.514,6.514,0,0,0,1.808-2.5c.535.521,1.092,1.034,1.649,1.533L9.553,40.368a8.368,8.368,0,0,1-.21-1.3ZM16.46,25.231c1.975-.629,3.508-.492,4.665.419,2.575,2.04,3,7.623,2.893,11.681-2.314-3.341-5.048-7.565-7.558-12.1ZM7.47,2.65c2.17,1.844,8.093,8.3,10.806,13.981,1.295,2.712,2.17,4.868,2.749,6.466a7.866,7.866,0,0,0-5.605.188h0a78.905,78.905,0,0,1-3.884-8.462C8.641,7.258,7.723,4.025,7.47,2.651ZM22.484,38.93a21.851,21.851,0,0,1-4.13-2.756,1.041,1.041,0,0,0-.535-.434c-1.085-.926-2.127-1.91-3.1-2.893.152-.5.3-1.02.434-1.591s.507-2.083-.607-2.719h0a1.6,1.6,0,0,0-1.338-.08,4.481,4.481,0,0,1,1.338-2.249A148.112,148.112,0,0,0,22.484,38.93ZM12.293,31.871l.427-.507h0a2.847,2.847,0,0,1,.217-.2c-.767,2.994-1.563,4.2-2.119,4.665l-.507.159c-1.186.362-3.4,1.041-3.175,2.893,0,.13.036.275.051.434h0A13.8,13.8,0,0,0,7.5,41.3c-1.222.318-2.054.557-2.625.724h0a13.443,13.443,0,0,1-.9-3.942c0-1.28.26-1.859.875-2.213a6.514,6.514,0,0,0,.875-.144,3.83,3.83,0,0,0,1.135-.463,12.484,12.484,0,0,0,1.259-.34,7.955,7.955,0,0,0,4.173-3.045Zm-8.34-2.358c1.338-.376,1.917-.3,2.51.919a2.6,2.6,0,0,1,0,2.17,1.974,1.974,0,0,1-.5.644,9.492,9.492,0,0,0-1.621.477.654.654,0,0,1-.391-.087,4.346,4.346,0,0,1-.665-1.7C2.79,29.838,3.462,29.651,3.954,29.513ZM5.69,44.037c.724-.217,1.721-.492,2.719-.724a2.82,2.82,0,0,0,1.9,1.049h.282l-.542,2.351-3.031.05c-.311-.556-.781-1.584-1.331-2.726Zm9.5,2.784a15.036,15.036,0,0,0-2.893-.116l.456-2.134,2.5.21,5.171,4.166-.723.521h0a38.394,38.394,0,0,0-4.506-2.661Zm8.361,10.126c-3.1.232-5.917-.854-8.9-2-1.4-.535-2.835-1.078-4.34-1.49h0a8.577,8.577,0,0,1,3.79-.773,3.043,3.043,0,0,1,2.17.991,5.15,5.15,0,0,0,4.029,1.519,7.314,7.314,0,0,0,4.08-1.215,3.4,3.4,0,0,1,2.119-.687,4.884,4.884,0,0,1,2.893.832,10.331,10.331,0,0,0,.983.528,15.414,15.414,0,0,1-6.821,2.285Z" transform="translate(0 0)" fill="#365ded"/>
  </g>
</svg>
